<mxfile host="app.diagrams.net" agent="Mozilla/5.0 (X11; Linux x86_64; rv:134.0) Gecko/20100101 Firefox/134.0" version="26.0.13">
  <diagram id="C5RBs43oDa-KdzZeNtuy" name="Page-1">
    <mxGraphModel dx="1558" dy="989" grid="1" gridSize="10" guides="1" tooltips="1" connect="1" arrows="1" fold="1" page="1" pageScale="1" pageWidth="827" pageHeight="1169" math="0" shadow="0">
      <root>
        <mxCell id="WIyWlLk6GJQsqaUBKTNV-0" />
        <mxCell id="WIyWlLk6GJQsqaUBKTNV-1" parent="WIyWlLk6GJQsqaUBKTNV-0" />
        <mxCell id="Wa81t80C9Mi1-pqYMIvj-2" style="edgeStyle=orthogonalEdgeStyle;rounded=0;orthogonalLoop=1;jettySize=auto;html=1;exitX=0.5;exitY=1;exitDx=0;exitDy=0;entryX=0.5;entryY=0;entryDx=0;entryDy=0;" parent="WIyWlLk6GJQsqaUBKTNV-1" source="Wa81t80C9Mi1-pqYMIvj-0" target="Wa81t80C9Mi1-pqYMIvj-1" edge="1">
          <mxGeometry relative="1" as="geometry" />
        </mxCell>
        <mxCell id="Wa81t80C9Mi1-pqYMIvj-0" value="User input for a number" style="rounded=0;whiteSpace=wrap;html=1;" parent="WIyWlLk6GJQsqaUBKTNV-1" vertex="1">
          <mxGeometry x="294" y="140" width="120" height="60" as="geometry" />
        </mxCell>
        <mxCell id="Wa81t80C9Mi1-pqYMIvj-5" style="edgeStyle=orthogonalEdgeStyle;rounded=0;orthogonalLoop=1;jettySize=auto;html=1;" parent="WIyWlLk6GJQsqaUBKTNV-1" source="Wa81t80C9Mi1-pqYMIvj-1" target="Wa81t80C9Mi1-pqYMIvj-4" edge="1">
          <mxGeometry relative="1" as="geometry" />
        </mxCell>
        <mxCell id="Wa81t80C9Mi1-pqYMIvj-1" value="Start a counter at 1" style="rounded=0;whiteSpace=wrap;html=1;" parent="WIyWlLk6GJQsqaUBKTNV-1" vertex="1">
          <mxGeometry x="294" y="240" width="120" height="60" as="geometry" />
        </mxCell>
        <mxCell id="Wa81t80C9Mi1-pqYMIvj-3" value="Increment counter" style="rounded=0;whiteSpace=wrap;html=1;" parent="WIyWlLk6GJQsqaUBKTNV-1" vertex="1">
          <mxGeometry x="460" y="240" width="120" height="60" as="geometry" />
        </mxCell>
        <mxCell id="etCQB0MDVgNDhWtDbAoa-2" value="No" style="edgeStyle=orthogonalEdgeStyle;rounded=0;orthogonalLoop=1;jettySize=auto;html=1;" edge="1" parent="WIyWlLk6GJQsqaUBKTNV-1" source="Wa81t80C9Mi1-pqYMIvj-4" target="etCQB0MDVgNDhWtDbAoa-1">
          <mxGeometry relative="1" as="geometry" />
        </mxCell>
        <mxCell id="etCQB0MDVgNDhWtDbAoa-3" value="Yes" style="edgeStyle=orthogonalEdgeStyle;rounded=0;orthogonalLoop=1;jettySize=auto;html=1;exitX=0.5;exitY=1;exitDx=0;exitDy=0;" edge="1" parent="WIyWlLk6GJQsqaUBKTNV-1" source="Wa81t80C9Mi1-pqYMIvj-4" target="etCQB0MDVgNDhWtDbAoa-0">
          <mxGeometry relative="1" as="geometry" />
        </mxCell>
        <mxCell id="Wa81t80C9Mi1-pqYMIvj-4" value="Is counter less than number" style="rhombus;whiteSpace=wrap;html=1;" parent="WIyWlLk6GJQsqaUBKTNV-1" vertex="1">
          <mxGeometry x="259" y="340" width="190" height="80" as="geometry" />
        </mxCell>
        <mxCell id="Wa81t80C9Mi1-pqYMIvj-13" value="" style="edgeStyle=orthogonalEdgeStyle;rounded=0;orthogonalLoop=1;jettySize=auto;html=1;" parent="WIyWlLk6GJQsqaUBKTNV-1" source="Wa81t80C9Mi1-pqYMIvj-6" target="Wa81t80C9Mi1-pqYMIvj-10" edge="1">
          <mxGeometry relative="1" as="geometry" />
        </mxCell>
        <mxCell id="Wa81t80C9Mi1-pqYMIvj-17" value="" style="edgeStyle=orthogonalEdgeStyle;rounded=0;orthogonalLoop=1;jettySize=auto;html=1;" parent="WIyWlLk6GJQsqaUBKTNV-1" source="Wa81t80C9Mi1-pqYMIvj-6" target="Wa81t80C9Mi1-pqYMIvj-7" edge="1">
          <mxGeometry relative="1" as="geometry" />
        </mxCell>
        <mxCell id="Wa81t80C9Mi1-pqYMIvj-6" value="Is number multiple of 15" style="rhombus;whiteSpace=wrap;html=1;" parent="WIyWlLk6GJQsqaUBKTNV-1" vertex="1">
          <mxGeometry x="10" y="874" width="140" height="80" as="geometry" />
        </mxCell>
        <mxCell id="Wa81t80C9Mi1-pqYMIvj-14" value="" style="edgeStyle=orthogonalEdgeStyle;rounded=0;orthogonalLoop=1;jettySize=auto;html=1;" parent="WIyWlLk6GJQsqaUBKTNV-1" source="Wa81t80C9Mi1-pqYMIvj-7" target="Wa81t80C9Mi1-pqYMIvj-11" edge="1">
          <mxGeometry relative="1" as="geometry" />
        </mxCell>
        <mxCell id="Wa81t80C9Mi1-pqYMIvj-16" value="" style="edgeStyle=orthogonalEdgeStyle;rounded=0;orthogonalLoop=1;jettySize=auto;html=1;" parent="WIyWlLk6GJQsqaUBKTNV-1" source="Wa81t80C9Mi1-pqYMIvj-7" target="Wa81t80C9Mi1-pqYMIvj-8" edge="1">
          <mxGeometry relative="1" as="geometry" />
        </mxCell>
        <mxCell id="Wa81t80C9Mi1-pqYMIvj-7" value="Is number multiple of 5" style="rhombus;whiteSpace=wrap;html=1;" parent="WIyWlLk6GJQsqaUBKTNV-1" vertex="1">
          <mxGeometry x="10" y="984" width="140" height="80" as="geometry" />
        </mxCell>
        <mxCell id="Wa81t80C9Mi1-pqYMIvj-15" value="" style="edgeStyle=orthogonalEdgeStyle;rounded=0;orthogonalLoop=1;jettySize=auto;html=1;" parent="WIyWlLk6GJQsqaUBKTNV-1" source="Wa81t80C9Mi1-pqYMIvj-8" target="Wa81t80C9Mi1-pqYMIvj-12" edge="1">
          <mxGeometry relative="1" as="geometry" />
        </mxCell>
        <mxCell id="Wa81t80C9Mi1-pqYMIvj-8" value="Is number multiple of 3" style="rhombus;whiteSpace=wrap;html=1;" parent="WIyWlLk6GJQsqaUBKTNV-1" vertex="1">
          <mxGeometry x="10" y="1089" width="140" height="80" as="geometry" />
        </mxCell>
        <mxCell id="Wa81t80C9Mi1-pqYMIvj-10" value="&lt;div&gt;Return fizzbuzz&lt;/div&gt;" style="rounded=0;whiteSpace=wrap;html=1;" parent="WIyWlLk6GJQsqaUBKTNV-1" vertex="1">
          <mxGeometry x="190" y="884" width="120" height="60" as="geometry" />
        </mxCell>
        <mxCell id="Wa81t80C9Mi1-pqYMIvj-11" value="Return buzz" style="rounded=0;whiteSpace=wrap;html=1;" parent="WIyWlLk6GJQsqaUBKTNV-1" vertex="1">
          <mxGeometry x="190" y="994" width="120" height="60" as="geometry" />
        </mxCell>
        <mxCell id="Wa81t80C9Mi1-pqYMIvj-12" value="Return fizz" style="rounded=0;whiteSpace=wrap;html=1;" parent="WIyWlLk6GJQsqaUBKTNV-1" vertex="1">
          <mxGeometry x="190" y="1099" width="120" height="60" as="geometry" />
        </mxCell>
        <mxCell id="Wa81t80C9Mi1-pqYMIvj-19" style="edgeStyle=orthogonalEdgeStyle;rounded=0;orthogonalLoop=1;jettySize=auto;html=1;entryX=0.5;entryY=0;entryDx=0;entryDy=0;" parent="WIyWlLk6GJQsqaUBKTNV-1" source="Wa81t80C9Mi1-pqYMIvj-18" target="Wa81t80C9Mi1-pqYMIvj-6" edge="1">
          <mxGeometry relative="1" as="geometry" />
        </mxCell>
        <mxCell id="Wa81t80C9Mi1-pqYMIvj-18" value="Function fb()" style="rounded=0;whiteSpace=wrap;html=1;" parent="WIyWlLk6GJQsqaUBKTNV-1" vertex="1">
          <mxGeometry x="20" y="774" width="120" height="60" as="geometry" />
        </mxCell>
        <mxCell id="etCQB0MDVgNDhWtDbAoa-6" style="edgeStyle=orthogonalEdgeStyle;rounded=0;orthogonalLoop=1;jettySize=auto;html=1;" edge="1" parent="WIyWlLk6GJQsqaUBKTNV-1" source="etCQB0MDVgNDhWtDbAoa-0" target="etCQB0MDVgNDhWtDbAoa-5">
          <mxGeometry relative="1" as="geometry" />
        </mxCell>
        <mxCell id="etCQB0MDVgNDhWtDbAoa-0" value="Run fb() on number, store output" style="rounded=0;whiteSpace=wrap;html=1;" vertex="1" parent="WIyWlLk6GJQsqaUBKTNV-1">
          <mxGeometry x="294" y="440" width="120" height="60" as="geometry" />
        </mxCell>
        <mxCell id="etCQB0MDVgNDhWtDbAoa-1" value="Program end" style="rounded=0;whiteSpace=wrap;html=1;" vertex="1" parent="WIyWlLk6GJQsqaUBKTNV-1">
          <mxGeometry x="80" y="350" width="120" height="60" as="geometry" />
        </mxCell>
        <mxCell id="etCQB0MDVgNDhWtDbAoa-9" value="Yes" style="edgeStyle=orthogonalEdgeStyle;rounded=0;orthogonalLoop=1;jettySize=auto;html=1;exitX=0;exitY=0.5;exitDx=0;exitDy=0;entryX=1;entryY=0.5;entryDx=0;entryDy=0;" edge="1" parent="WIyWlLk6GJQsqaUBKTNV-1" source="etCQB0MDVgNDhWtDbAoa-5" target="etCQB0MDVgNDhWtDbAoa-8">
          <mxGeometry relative="1" as="geometry" />
        </mxCell>
        <mxCell id="etCQB0MDVgNDhWtDbAoa-13" style="edgeStyle=orthogonalEdgeStyle;rounded=0;orthogonalLoop=1;jettySize=auto;html=1;" edge="1" parent="WIyWlLk6GJQsqaUBKTNV-1" source="etCQB0MDVgNDhWtDbAoa-5" target="etCQB0MDVgNDhWtDbAoa-12">
          <mxGeometry relative="1" as="geometry" />
        </mxCell>
        <mxCell id="etCQB0MDVgNDhWtDbAoa-5" value="Is counter divisible by 2" style="rhombus;whiteSpace=wrap;html=1;" vertex="1" parent="WIyWlLk6GJQsqaUBKTNV-1">
          <mxGeometry x="259" y="540" width="190" height="80" as="geometry" />
        </mxCell>
        <mxCell id="etCQB0MDVgNDhWtDbAoa-7" value="" style="endArrow=none;dashed=1;html=1;dashPattern=1 3;strokeWidth=2;rounded=0;exitX=0.5;exitY=0;exitDx=0;exitDy=0;entryX=0;entryY=0.5;entryDx=0;entryDy=0;" edge="1" parent="WIyWlLk6GJQsqaUBKTNV-1" source="Wa81t80C9Mi1-pqYMIvj-18" target="etCQB0MDVgNDhWtDbAoa-0">
          <mxGeometry width="50" height="50" relative="1" as="geometry">
            <mxPoint x="390" y="560" as="sourcePoint" />
            <mxPoint x="440" y="510" as="targetPoint" />
            <Array as="points">
              <mxPoint x="80" y="470" />
            </Array>
          </mxGeometry>
        </mxCell>
        <mxCell id="etCQB0MDVgNDhWtDbAoa-11" style="edgeStyle=orthogonalEdgeStyle;rounded=0;orthogonalLoop=1;jettySize=auto;html=1;entryX=0.5;entryY=1;entryDx=0;entryDy=0;" edge="1" parent="WIyWlLk6GJQsqaUBKTNV-1" source="etCQB0MDVgNDhWtDbAoa-8" target="Wa81t80C9Mi1-pqYMIvj-3">
          <mxGeometry relative="1" as="geometry">
            <Array as="points">
              <mxPoint x="160" y="520" />
              <mxPoint x="520" y="520" />
            </Array>
          </mxGeometry>
        </mxCell>
        <mxCell id="etCQB0MDVgNDhWtDbAoa-8" value="Print output of fb()" style="whiteSpace=wrap;html=1;aspect=fixed;" vertex="1" parent="WIyWlLk6GJQsqaUBKTNV-1">
          <mxGeometry x="120" y="540" width="80" height="80" as="geometry" />
        </mxCell>
        <mxCell id="etCQB0MDVgNDhWtDbAoa-18" style="edgeStyle=orthogonalEdgeStyle;rounded=0;orthogonalLoop=1;jettySize=auto;html=1;" edge="1" parent="WIyWlLk6GJQsqaUBKTNV-1" source="etCQB0MDVgNDhWtDbAoa-12" target="etCQB0MDVgNDhWtDbAoa-16">
          <mxGeometry relative="1" as="geometry" />
        </mxCell>
        <mxCell id="etCQB0MDVgNDhWtDbAoa-12" value="User input" style="whiteSpace=wrap;html=1;aspect=fixed;" vertex="1" parent="WIyWlLk6GJQsqaUBKTNV-1">
          <mxGeometry x="510" y="540" width="80" height="80" as="geometry" />
        </mxCell>
        <mxCell id="etCQB0MDVgNDhWtDbAoa-21" value="No" style="edgeStyle=orthogonalEdgeStyle;rounded=0;orthogonalLoop=1;jettySize=auto;html=1;" edge="1" parent="WIyWlLk6GJQsqaUBKTNV-1" source="etCQB0MDVgNDhWtDbAoa-16" target="etCQB0MDVgNDhWtDbAoa-19">
          <mxGeometry relative="1" as="geometry" />
        </mxCell>
        <mxCell id="etCQB0MDVgNDhWtDbAoa-22" value="Yes" style="edgeStyle=orthogonalEdgeStyle;rounded=0;orthogonalLoop=1;jettySize=auto;html=1;entryX=0.5;entryY=0;entryDx=0;entryDy=0;" edge="1" parent="WIyWlLk6GJQsqaUBKTNV-1" source="etCQB0MDVgNDhWtDbAoa-16" target="etCQB0MDVgNDhWtDbAoa-20">
          <mxGeometry relative="1" as="geometry" />
        </mxCell>
        <mxCell id="etCQB0MDVgNDhWtDbAoa-16" value="Is user input the same as fb()" style="rhombus;whiteSpace=wrap;html=1;" vertex="1" parent="WIyWlLk6GJQsqaUBKTNV-1">
          <mxGeometry x="455" y="764" width="190" height="80" as="geometry" />
        </mxCell>
        <mxCell id="etCQB0MDVgNDhWtDbAoa-26" style="edgeStyle=orthogonalEdgeStyle;rounded=0;orthogonalLoop=1;jettySize=auto;html=1;entryX=0.5;entryY=1;entryDx=0;entryDy=0;" edge="1" parent="WIyWlLk6GJQsqaUBKTNV-1" source="etCQB0MDVgNDhWtDbAoa-19" target="etCQB0MDVgNDhWtDbAoa-1">
          <mxGeometry relative="1" as="geometry">
            <Array as="points">
              <mxPoint x="605" y="1010" />
              <mxPoint x="370" y="1010" />
              <mxPoint x="370" y="670" />
              <mxPoint x="250" y="670" />
              <mxPoint x="250" y="450" />
              <mxPoint x="140" y="450" />
            </Array>
          </mxGeometry>
        </mxCell>
        <mxCell id="etCQB0MDVgNDhWtDbAoa-19" value="Print rude message" style="whiteSpace=wrap;html=1;aspect=fixed;" vertex="1" parent="WIyWlLk6GJQsqaUBKTNV-1">
          <mxGeometry x="565" y="884" width="80" height="80" as="geometry" />
        </mxCell>
        <mxCell id="etCQB0MDVgNDhWtDbAoa-20" value="Print congratulatory message" style="whiteSpace=wrap;html=1;aspect=fixed;" vertex="1" parent="WIyWlLk6GJQsqaUBKTNV-1">
          <mxGeometry x="460" y="884" width="80" height="80" as="geometry" />
        </mxCell>
        <mxCell id="etCQB0MDVgNDhWtDbAoa-25" style="edgeStyle=orthogonalEdgeStyle;rounded=0;orthogonalLoop=1;jettySize=auto;html=1;entryX=0.5;entryY=1;entryDx=0;entryDy=0;" edge="1" parent="WIyWlLk6GJQsqaUBKTNV-1" target="Wa81t80C9Mi1-pqYMIvj-3">
          <mxGeometry relative="1" as="geometry">
            <mxPoint x="519" y="490" as="targetPoint" />
            <mxPoint x="500" y="964" as="sourcePoint" />
            <Array as="points">
              <mxPoint x="500" y="1000" />
              <mxPoint x="449" y="1000" />
              <mxPoint x="449" y="680" />
              <mxPoint x="480" y="680" />
              <mxPoint x="480" y="520" />
              <mxPoint x="520" y="520" />
            </Array>
          </mxGeometry>
        </mxCell>
      </root>
    </mxGraphModel>
  </diagram>
</mxfile>
